<svg width="314" height="64" viewBox="0 0 314 64" fill="none" xmlns="http://www.w3.org/2000/svg">
<g clip-path="url(#clip0_4596_20512)">
<mask id="mask0_4596_20512" style="mask-type:luminance" maskUnits="userSpaceOnUse" x="0" y="0" width="313" height="64">
<path d="M312.277 0H0.995117V63.2293H312.277V0Z" fill="white"/>
</mask>
<g mask="url(#mask0_4596_20512)">
<path d="M102.09 44.7852H85.6039C85.3632 44.7852 85.1632 44.5895 85.1632 44.353V39.6664C85.1632 39.4257 85.3591 39.234 85.6039 39.234H100.16C100.401 39.234 100.601 39.0383 100.601 38.8017V32.5979C100.601 32.3572 100.405 32.1655 100.16 32.1655H85.6039C85.3632 32.1655 85.1632 31.9697 85.1632 31.7331V27.5524C85.1632 27.3118 85.3591 27.1201 85.6039 27.1201H101.539C101.78 27.1201 101.98 26.9243 101.98 26.6877V20.4839C101.98 20.2432 101.784 20.0515 101.539 20.0515H77.6076C77.3669 20.0515 77.167 20.2472 77.167 20.4839V51.4133C77.167 51.654 77.3629 51.8457 77.6076 51.8457H102.09C102.331 51.8457 102.531 51.6499 102.531 51.4133V45.2094C102.531 44.9687 102.335 44.777 102.09 44.777V44.7852Z" fill="#3C3C3B"/>
<path d="M125.52 44.6546C124.676 45.4132 123.627 45.7926 122.379 45.7926H115.925C115.684 45.7926 115.484 45.5969 115.484 45.3602V38.6547C115.484 38.414 115.68 38.2223 115.925 38.2223H122.379C123.627 38.2223 124.672 38.6017 125.52 39.3603C126.365 40.1191 126.789 41 126.789 42.0116C126.789 43.0232 126.365 43.9041 125.52 44.6628V44.6546ZM115.484 26.5367C115.484 26.296 115.68 26.1043 115.925 26.1043H121.547C122.648 26.1043 123.566 26.4347 124.305 27.0874C125.043 27.744 125.406 28.5107 125.406 29.3836C125.406 30.2565 125.039 31.0234 124.305 31.68C123.57 32.3367 122.652 32.663 121.547 32.663H115.925C115.684 32.663 115.484 32.4672 115.484 32.2306V26.5367ZM131.75 36.6561C130.942 35.9464 130.02 35.3795 128.992 34.939C129.727 34.5678 130.408 34.0946 131.032 33.5277C131.546 33.0587 132.023 32.4346 132.468 31.6596C132.909 30.8847 133.129 29.9629 133.129 28.8861C133.129 27.6747 132.86 26.5407 132.33 25.4762C131.795 24.4198 131.061 23.4817 130.126 22.6781C129.192 21.8745 128.058 21.2302 126.736 20.757C125.414 20.2879 123.962 20.0474 122.379 20.0474H107.933C107.692 20.0474 107.492 20.2431 107.492 20.4796V51.4253C107.492 51.666 107.688 51.8577 107.933 51.8577H123.207C124.86 51.8577 126.377 51.6048 127.756 51.0991C129.135 50.5933 130.326 49.9203 131.338 49.0801C132.35 48.2358 133.133 47.2528 133.684 46.127C134.235 45.0014 134.512 43.798 134.512 42.5214C134.512 41.1102 134.231 39.9314 133.66 38.9891C133.088 38.047 132.456 37.272 131.754 36.6683V36.6601L131.75 36.6561Z" fill="#3C3C3B"/>
<path d="M156.118 33.5523C155.275 34.311 154.226 34.6902 152.977 34.6902H147.907C147.666 34.6902 147.466 34.4945 147.466 34.258V27.5524C147.466 27.3118 147.662 27.1201 147.907 27.1201H152.977C154.226 27.1201 155.271 27.4994 156.118 28.2581C156.963 29.0167 157.387 29.8978 157.387 30.9093C157.387 31.9208 156.963 32.8018 156.118 33.5605V33.5523ZM161.855 23.2044C160.754 22.2132 159.444 21.4382 157.939 20.8836C156.433 20.3289 154.776 20.0515 152.977 20.0515H139.91C139.67 20.0515 139.47 20.2472 139.47 20.4839V51.4255C139.47 51.6662 139.666 51.8579 139.91 51.8579H147.025C147.266 51.8579 147.466 51.6621 147.466 51.4255V42.1953C147.466 41.9546 147.662 41.7629 147.907 41.7629H152.977C154.776 41.7629 156.433 41.4815 157.939 40.9308C159.444 40.3761 160.754 39.6052 161.855 38.6059C162.957 37.6147 163.821 36.4605 164.446 35.1471C165.074 33.8338 165.38 32.4225 165.38 30.9051C165.38 29.3879 165.065 27.9766 164.446 26.6633C163.818 25.3498 162.957 24.1996 161.855 23.2044Z" fill="#3C3C3B"/>
<path d="M195.252 40.123C194.77 41.2365 194.122 42.195 193.297 43.0026C192.469 43.8102 191.502 44.4384 190.402 44.8952C189.299 45.3479 188.121 45.5804 186.877 45.5804C185.632 45.5804 184.452 45.352 183.351 44.8952C182.249 44.4424 181.282 43.8061 180.454 43.0026C179.627 42.195 178.974 41.2365 178.5 40.123C178.019 39.0094 177.783 37.8022 177.783 36.4887C177.783 35.1754 178.019 33.964 178.5 32.8546C178.981 31.7411 179.631 30.7826 180.454 29.9749C181.282 29.1673 182.249 28.5392 183.351 28.0824C184.452 27.6296 185.632 27.3972 186.877 27.3972C188.121 27.3972 189.299 27.6255 190.402 28.0824C191.502 28.5392 192.469 29.1714 193.297 29.9749C194.126 30.7826 194.779 31.7411 195.252 32.8546C195.733 33.968 195.97 35.1754 195.97 36.4887C195.97 37.8022 195.733 39.0136 195.252 40.123ZM198.943 25.003C197.401 23.5427 195.591 22.3925 193.514 21.5686C191.438 20.7446 189.226 20.3328 186.868 20.3328C184.51 20.3328 182.298 20.7488 180.222 21.5686C178.145 22.3925 176.339 23.5386 174.793 25.003C173.246 26.4631 172.022 28.1802 171.124 30.1503C170.227 32.1204 169.774 34.2332 169.774 36.4887C169.774 38.7443 170.223 40.8979 171.124 42.8516C172.022 44.8014 173.246 46.5144 174.793 47.9746C176.334 49.4348 178.141 50.585 180.222 51.409C182.298 52.2328 184.51 52.6448 186.868 52.6448C189.226 52.6448 191.438 52.2288 193.514 51.409C195.591 50.5891 197.397 49.4389 198.943 47.9746C200.487 46.5144 201.705 44.8014 202.612 42.8516C203.509 40.902 203.961 38.7811 203.961 36.4887C203.961 34.1965 203.513 32.1245 202.612 30.1503C201.714 28.1802 200.489 26.4631 198.943 25.003Z" fill="#3C3C3B"/>
<path d="M230.133 44.8874C230.133 45.128 229.936 45.3197 229.692 45.3197H218.677C218.289 45.3197 218.097 44.8588 218.362 44.5815C218.444 44.4958 218.526 44.4061 218.604 44.3081C218.897 43.9369 219.199 43.4231 219.513 42.7663C219.827 42.1098 220.055 41.2736 220.199 40.2661L221.235 32.3533C221.59 29.6572 223.906 27.6423 226.661 27.6423H229.683C229.925 27.6423 230.124 27.8381 230.124 28.0746V44.8792H230.129L230.133 44.8874ZM241.547 45.3278H238.566C238.324 45.3278 238.124 45.1321 238.124 44.8956V21.0183C238.124 20.7776 237.929 20.5859 237.683 20.5859H224.31C218.975 20.5859 214.474 24.5139 213.81 29.7428L212.479 40.2742C212.333 41.2817 212.064 42.1138 211.68 42.7745C211.297 43.4313 210.897 43.9411 210.493 44.3163C210.039 44.7323 209.533 45.0587 208.983 45.2912C208.925 45.3156 208.861 45.3278 208.799 45.3278H207.126C206.886 45.3278 206.687 45.5237 206.687 45.7603V56.3651C206.687 56.6057 206.882 56.7974 207.126 56.7974H214.242C214.482 56.7974 214.682 56.6016 214.682 56.3651V52.8329C214.682 52.5922 214.879 52.4005 215.123 52.4005H233.539C233.78 52.4005 233.98 52.5963 233.98 52.8329V56.3651C233.98 56.6057 234.175 56.7974 234.42 56.7974H241.536C241.776 56.7974 241.976 56.6016 241.976 56.3651V45.7603C241.976 45.5195 241.78 45.3278 241.536 45.3278H241.547Z" fill="#3C3C3B"/>
<path d="M269.931 40.123C269.449 41.2365 268.801 42.195 267.976 43.0026C267.149 43.8102 266.181 44.4384 265.079 44.8952C263.979 45.3479 262.799 45.5804 261.554 45.5804C260.311 45.5804 259.131 45.352 258.031 44.8952C256.928 44.4424 255.961 43.8061 255.134 43.0026C254.306 42.195 253.652 41.2365 253.179 40.123C252.698 39.0094 252.461 37.8022 252.461 36.4887C252.461 35.1754 252.698 33.964 253.179 32.8546C253.652 31.7411 254.309 30.7826 255.134 29.9749C255.961 29.1673 256.92 28.5392 258.031 28.0824C259.131 27.6296 260.311 27.3972 261.554 27.3972C262.799 27.3972 263.979 27.6255 265.079 28.0824C266.181 28.5392 267.149 29.1714 267.976 29.9749C268.804 30.7826 269.458 31.7411 269.931 32.8546C270.412 33.968 270.649 35.1754 270.649 36.4887C270.649 37.8022 270.412 39.0136 269.931 40.123ZM273.622 25.003C272.08 23.5427 270.27 22.3925 268.193 21.5686C266.115 20.7446 263.905 20.3328 261.547 20.3328C259.189 20.3328 256.977 20.7488 254.901 21.5686C252.824 22.3925 251.017 23.5386 249.47 25.003C247.928 26.4631 246.701 28.1802 245.803 30.1503C244.906 32.1204 244.452 34.2332 244.452 36.4887C244.452 38.7443 244.902 40.8979 245.803 42.8516C246.701 44.8014 247.924 46.5144 249.47 47.9746C251.012 49.4348 252.824 50.585 254.901 51.409C256.977 52.2328 259.189 52.6448 261.547 52.6448C263.905 52.6448 266.115 52.2288 268.193 51.409C270.27 50.5891 272.076 49.4389 273.622 47.9746C275.169 46.5144 276.384 44.8014 277.29 42.8516C278.188 40.902 278.641 38.7811 278.641 36.4887C278.641 34.1965 278.192 32.1245 277.29 30.1503C276.393 28.1802 275.169 26.4631 273.622 25.003Z" fill="#3C3C3B"/>
<path d="M311.837 20.5815H304.718C304.478 20.5815 304.277 20.7773 304.277 21.0139V32.2672C304.277 32.5079 304.081 32.6996 303.837 32.6996H291.483C291.243 32.6996 291.043 32.5039 291.043 32.2672V21.0139C291.043 20.7732 290.846 20.5815 290.602 20.5815H283.487C283.246 20.5815 283.046 20.7773 283.046 21.0139V51.9597C283.046 52.2002 283.243 52.3919 283.487 52.3919H290.602C290.843 52.3919 291.043 52.1962 291.043 51.9597V40.2046C291.043 39.9639 291.238 39.7722 291.483 39.7722H303.837C304.077 39.7722 304.277 39.9679 304.277 40.2046V51.9597C304.277 52.2002 304.473 52.3919 304.718 52.3919H311.837C312.078 52.3919 312.278 52.1962 312.278 51.9597V21.018C312.278 20.7773 312.081 20.5856 311.837 20.5856V20.5815Z" fill="#3C3C3B"/>
<path d="M22.3362 42.1501C34.1224 42.1501 43.6772 32.7146 43.6772 21.075C43.6772 9.43562 34.1224 0 22.3362 0C10.5498 0 0.995117 9.43562 0.995117 21.075C0.995117 32.7146 10.5498 42.1501 22.3362 42.1501Z" fill="#64E1BA"/>
<g style="mix-blend-mode:multiply">
<path d="M22.3359 21.0754H43.677C55.455 21.0754 65.0179 30.5219 65.0179 42.1505C65.0179 53.7791 55.455 63.2255 43.677 63.2255H22.3359V21.0754Z" fill="#0094F5"/>
</g>
</g>
</g>
<defs>
<clipPath id="clip0_4596_20512">
<rect width="313.272" height="63.2293" fill="white"/>
</clipPath>
</defs>
</svg>
